HIERARCHY
ROOT Hips
{
	OFFSET 0.000000 0.000000 0.000000
	CHANNELS 6 Xposition Yposition Zposition Xrotation Yrotation Zrotation
	JOINT LeftUpLeg_virtual
	{
		OFFSET 0.000000 0.000000 0.000000
		CHANNELS 3 Xrotation Yrotation Zrotation
		JOINT LeftUpLeg
		{
			OFFSET 10.205400 -3.823500 0.155100
			CHANNELS 3 Xrotation Yrotation Zrotation
			JOINT LeftLeg
			{
				OFFSET 0.708757 -12.982077 0.567790
				CHANNELS 3 Xrotation Yrotation Zrotation
				JOINT LeftFoot
				{
					OFFSET -0.708756 -10.717838 -2.184338
					CHANNELS 3 Xrotation Yrotation Zrotation
					JOINT LeftToeBase
					{
						OFFSET 0.108149 -7.191104 7.560241
						CHANNELS 3 Xrotation Yrotation Zrotation
						JOINT LeftToe_End
						{
							OFFSET 0.070230 0.081724 4.490308
							CHANNELS 3 Xrotation Yrotation Zrotation
							End Site
							{
								OFFSET 0 0 0
							}
						}
					}
				}
			}
		}
	}
	JOINT RightUpLeg_virtual
	{
		OFFSET 0.000000 0.000000 0.000000
		CHANNELS 3 Xrotation Yrotation Zrotation
		JOINT RightUpLeg
		{
			OFFSET -10.205400 -3.823500 0.005500
			CHANNELS 3 Xrotation Yrotation Zrotation
			JOINT RightLeg
			{
				OFFSET -0.708756 -12.982134 0.610632
				CHANNELS 3 Xrotation Yrotation Zrotation
				JOINT RightFoot
				{
					OFFSET 0.708754 -10.717769 -1.945823
					CHANNELS 3 Xrotation Yrotation Zrotation
					JOINT RightToeBase
					{
						OFFSET -0.108140 -7.191069 7.372968
						CHANNELS 3 Xrotation Yrotation Zrotation
						JOINT RightToe_End
						{
							OFFSET -0.070227 0.081735 4.479403
							CHANNELS 3 Xrotation Yrotation Zrotation
							End Site
							{
								OFFSET 0 0 0
							}
						}
					}
				}
			}
		}
	}
	JOINT Spine_virtual
	{
		OFFSET 0.000000 0.000000 0.000000
		CHANNELS 3 Xrotation Yrotation Zrotation
		JOINT Spine
		{
			OFFSET 0.000000 6.876099 0.125700
			CHANNELS 3 Xrotation Yrotation Zrotation
			JOINT Spine1
			{
				OFFSET 0.000000 5.730043 0.104720
				CHANNELS 3 Xrotation Yrotation Zrotation
				JOINT Spine1_split
				{
					OFFSET 0.000000 5.730043 0.104720
					CHANNELS 3 Xrotation Yrotation Zrotation
					JOINT Spine2
					{
						OFFSET 0.000000 5.730043 0.104720
						CHANNELS 3 Xrotation Yrotation Zrotation
						JOINT Neck_virtual
						{
							OFFSET 0.000000 0.000000 0.000000
							CHANNELS 3 Xrotation Yrotation Zrotation
							JOINT Neck
							{
								OFFSET 0.000000 10.314075 0.188496
								CHANNELS 3 Xrotation Yrotation Zrotation
								JOINT Head
								{
									OFFSET 0.000000 7.643700 -2.377400
									CHANNELS 3 Xrotation Yrotation Zrotation
									JOINT HeadTop_End
									{
										OFFSET 0.000000 43.788605 -13.619600
										CHANNELS 3 Xrotation Yrotation Zrotation
										End Site
										{
											OFFSET 0 0 0
										}
									}
								}
							}
						}
						JOINT LeftShoulder_virtual
						{
							OFFSET 0.000000 0.000000 0.000000
							CHANNELS 3 Xrotation Yrotation Zrotation
							JOINT LeftShoulder
							{
								OFFSET 2.196100 4.412489 0.087492
								CHANNELS 3 Xrotation Yrotation Zrotation
								JOINT LeftShoulder_split
								{
									OFFSET 2.196100 4.412489 0.087492
									CHANNELS 3 Xrotation Yrotation Zrotation
									JOINT LeftArm
									{
										OFFSET 8.771219 -2.981674 -0.026999
										CHANNELS 3 Xrotation Yrotation Zrotation
										JOINT LeftForeArm
										{
											OFFSET 8.512804 0.000000 -0.000000
											CHANNELS 3 Xrotation Yrotation Zrotation
											JOINT LeftHand
											{
												OFFSET 18.484802 0.000000 -0.000000
												CHANNELS 3 Xrotation Yrotation Zrotation
												End Site
												{
													OFFSET 0 0 0
												}
											}
										}
									}
								}
							}
						}
						JOINT RightShoulder_virtual
						{
							OFFSET 0.000000 0.000000 0.000000
							CHANNELS 3 Xrotation Yrotation Zrotation
							JOINT RightShoulder
							{
								OFFSET -2.196100 4.412496 0.070690
								CHANNELS 3 Xrotation Yrotation Zrotation
								JOINT RightShoulder_split
								{
									OFFSET -2.196100 4.412496 0.070690
									CHANNELS 3 Xrotation Yrotation Zrotation
									JOINT RightArm
									{
										OFFSET -8.771282 -2.981682 -0.094208
										CHANNELS 3 Xrotation Yrotation Zrotation
										JOINT RightForeArm
										{
											OFFSET -8.494598 0.000000 0.000000
											CHANNELS 3 Xrotation Yrotation Zrotation
											JOINT RightHand
											{
												OFFSET -18.483803 0.000000 0.000001
												CHANNELS 3 Xrotation Yrotation Zrotation
												End Site
												{
													OFFSET 0 0 0
												}
											}
										}
									}
								}
							}
						}
					}
				}
			}
		}
	}
}
MOTION
Frames: 4
Frame Time: 0.03333333
0.486946 28.113621 1.512274 0.000000 0.000000 0.000000 -4.900561 -35.179794 -0.107655 -33.323516 8.553419 19.435226 56.284280 -1.963414 2.321639 -27.871581 -4.897935 -17.297852 -0.423415 0.598491 0.778759 0.000000 0.000000 0.000000 -6.413938 -35.680539 0.504844 -15.925920 -9.596189 -40.487886 51.851794 -2.098869 -12.803392 -21.096759 -6.617466 34.461535 -3.596230 0.469419 -0.424958 0.000000 0.000000 0.000000 -2.525424 -38.142280 0.534844 12.175949 8.408304 -2.530089 1.529245 2.007940 -1.646935 1.809624 -3.932271 -0.637856 0.000000 0.000000 0.000000 0.727877 1.963623 -0.687762 -1.787613 8.270563 4.632943 9.874278 8.000482 -6.256022 0.000000 0.000000 0.000000 1.393891 1.424200 -1.973291 1.341424 -0.377112 -1.493878 -7.992387 1.183860 -5.517724 -45.740527 -5.888564 -48.916995 -168.171893 -76.928284 -165.336627 0.000000 0.000000 0.000000 1.860133 2.833907 0.307858 6.804746 10.804539 -10.807828 5.437149 14.042778 3.568349 -49.041120 31.519223 86.667669 176.879087 66.492943 -179.902470 0.000000 0.000000 0.000000 
0.571378 28.146082 1.219065 0.000000 0.000000 0.000000 -5.592672 -35.681683 0.472622 -32.089356 8.843955 18.045273 56.747804 -1.943456 2.169648 -27.396573 -4.300402 -16.336438 -0.669582 0.589737 0.562353 0.000000 0.000000 0.000000 -7.296376 -36.389622 0.774745 -16.492238 -9.335908 -41.456994 53.841807 -2.853116 -12.508622 -21.750138 -7.402095 32.536958 -1.002269 0.398618 -0.281965 0.000000 0.000000 0.000000 -4.364954 -39.878531 0.553275 10.874983 8.726758 -2.002204 1.430104 2.503654 -1.765039 0.136830 -2.734535 -0.411939 0.000000 0.000000 0.000000 1.189265 2.462754 -1.019123 -0.372270 7.799795 4.902002 8.508456 9.483059 -7.108635 0.000000 0.000000 0.000000 2.001726 1.995708 -1.857181 1.248415 -0.059480 -1.583182 -5.718382 0.154904 -7.427602 -44.281243 -6.549467 -52.605612 -168.577429 -79.440168 -165.969731 0.000000 0.000000 0.000000 2.370952 3.073501 -0.231199 6.667156 11.238801 -8.185744 3.424310 12.141290 3.352465 -47.359101 28.911945 81.707886 178.928376 67.019326 178.961393 0.000000 0.000000 0.000000 
0.682935 28.242760 0.927320 0.000000 0.000000 0.000000 -6.802746 -36.962624 1.612817 -29.271766 9.840260 15.520538 55.923028 -2.308508 1.774710 -27.235383 -3.992207 -16.704264 -0.560659 0.519147 0.487667 0.000000 0.000000 0.000000 -8.372261 -37.536551 1.744823 -16.462165 -7.357194 -42.969249 56.003057 -4.013513 -12.432187 -22.087958 -8.724575 31.057437 -1.073637 0.329657 0.098327 0.000000 0.000000 0.000000 -6.765591 -41.422058 0.864440 9.211957 9.583760 -0.932407 1.657331 3.730681 -1.917144 -0.240336 -0.751946 0.217037 0.000000 0.000000 0.000000 1.842590 3.599676 -1.414509 1.199419 6.805016 4.276110 6.081130 11.026214 -9.450628 0.000000 0.000000 0.000000 2.670389 3.320276 -1.754139 0.952739 -0.232128 -2.221481 -4.387751 -2.306718 -7.897408 -40.069814 -8.973602 -58.746218 -168.411961 -83.448984 -166.196794 0.000000 0.000000 0.000000 3.310040 4.028888 -1.003024 6.464241 12.099959 -4.314268 2.757268 10.408410 3.303689 -46.274296 25.051710 73.677401 -179.315279 67.170997 178.089014 0.000000 0.000000 0.000000 
0.819642 28.392954 0.772358 0.000000 0.000000 0.000000 -8.022633 -39.680134 3.034134 -25.484448 11.128309 12.525578 53.991460 -2.752217 1.097712 -27.303750 -3.544781 -18.350435 -0.223068 0.412806 0.518599 0.000000 0.000000 0.000000 -9.239747 -39.706475 3.233869 -16.096379 -4.045728 -44.589582 57.455367 -5.238283 -12.520672 -22.275731 -10.130209 29.650934 -2.553564 0.203983 0.715906 0.000000 0.000000 0.000000 -9.168895 -43.565603 1.383094 7.795570 10.453937 0.686251 2.370500 5.213812 -1.929789 0.847220 0.762467 0.927439 0.000000 0.000000 0.000000 2.816002 4.946905 -1.560759 2.449139 5.646980 3.214751 2.672789 12.603910 -12.517887 0.000000 0.000000 0.000000 3.505874 4.880545 -1.491531 0.436185 -0.762606 -2.839794 -3.560411 -3.393603 -7.491169 -34.148234 -12.313910 -65.067674 -155.337312 -88.331879 -153.465307 0.000000 0.000000 0.000000 4.651446 5.219651 -1.702607 6.195136 13.430649 -0.101296 2.731823 9.210799 3.678794 -47.111568 23.433696 65.510113 -178.971816 68.111814 178.455358 0.000000 0.000000 0.000000 
